<svg width="58" height="59" viewBox="0 0 58 59" fill="none" xmlns="http://www.w3.org/2000/svg">
    <path d="M33.8333 14.7858H41.0833C41.7243 14.7858 42.339 14.5312 42.7922 14.078C43.2454 13.6248 43.5 13.0101 43.5 12.3691V7.53581C43.5 6.89487 43.2454 6.28018 42.7922 5.82697C42.339 5.37375 41.7243 5.11914 41.0833 5.11914H33.8333C30.6286 5.11914 27.5552 6.3922 25.2891 8.65827C23.0231 10.9243 21.75 13.9978 21.75 17.2025V24.4525H16.9167C16.2757 24.4525 15.661 24.7071 15.2078 25.1603C14.7546 25.6135 14.5 26.2282 14.5 26.8691V31.7025C14.5 32.3434 14.7546 32.9581 15.2078 33.4113C15.661 33.8645 16.2757 34.1191 16.9167 34.1191H21.75V51.0358C21.75 51.6767 22.0046 52.2914 22.4578 52.7446C22.911 53.1979 23.5257 53.4525 24.1667 53.4525H29C29.6409 53.4525 30.2556 53.1979 30.7088 52.7446C31.1621 52.2914 31.4167 51.6767 31.4167 51.0358V34.1191H36.7817C37.3337 34.1352 37.8746 33.9617 38.3143 33.6276C38.754 33.2934 39.066 32.8187 39.1983 32.2825L40.4067 27.4491C40.4963 27.0873 40.501 26.7096 40.4204 26.3456C40.3398 25.9816 40.1761 25.6412 39.9421 25.351C39.708 25.0608 39.41 24.8287 39.0714 24.6728C38.7328 24.517 38.3626 24.4415 37.99 24.4525H31.4167V17.2025C31.4167 16.5615 31.6713 15.9468 32.1245 15.4936C32.5777 15.0404 33.1924 14.7858 33.8333 14.7858Z" fill="#43919B"/>
    </svg>
    