<svg width="62" height="77" viewBox="0 0 62 77" fill="none" xmlns="http://www.w3.org/2000/svg">
    <path fill-rule="evenodd" clip-rule="evenodd" d="M52.8513 33.8371C53.3551 32.4578 52.3791 30.9854 50.9107 30.9854C26.4101 30.9854 5.9518 46.3849 1.09407 66.8994C-0.111005 71.9885 4.23944 76.2857 9.46926 76.2857C14.6991 76.2857 18.7837 71.9075 20.6692 67.0294C24.036 58.3186 32.0224 51.52 42.0248 48.9502C45.4226 48.0773 48.4538 45.8761 49.6575 42.5808L52.8513 33.8371Z" fill="url(#paint0_linear_670_2693)"/>
    <path fill-rule="evenodd" clip-rule="evenodd" d="M0 9.46942C0 4.23961 4.2396 0 9.46942 0C9.55462 0 9.63956 0.00112531 9.72423 0.00336187C12.4151 0.0744459 15.3053 0 17.9971 0H57.1473C57.4178 0 57.6853 0.0127464 57.9493 0.0376714C61.6756 0.389511 62.5103 4.88376 61.2543 8.40958L58.6528 15.7129C58.42 16.3663 57.841 16.8517 57.1473 16.8517H17.9971C17.892 16.8517 17.8234 16.9646 17.8719 17.0578C18.5535 18.3654 18.9388 19.852 18.9388 21.4287V32.0004C18.9388 33.6354 18.1406 35.1675 16.8006 36.1043L14.6623 37.5992L12.2186 39.5018L10.284 41.2232L8.75667 42.7635L7.22934 44.3943L5.90566 46.1157L3.66185 49.1818C3.28021 49.7033 2.67272 50.0115 2.02649 50.0115C0.90729 50.0115 0 49.1042 0 47.985V21.4287C0 18.1867 0 14.6107 0 11.3687V9.46942Z" fill="url(#paint1_linear_670_2693)"/>
    <defs>
    <linearGradient id="paint0_linear_670_2693" x1="15.6345" y1="30.9854" x2="52.6889" y2="79.8433" gradientUnits="userSpaceOnUse">
    <stop stop-color="#0D98BA"/>
    <stop offset="1" stop-color="#0D98BA" stop-opacity="0.72"/>
    </linearGradient>
    <linearGradient id="paint1_linear_670_2693" x1="13.3639" y1="9.48173e-08" x2="81.2853" y2="45.6225" gradientUnits="userSpaceOnUse">
    <stop stop-color="#0D98BA"/>
    <stop offset="1" stop-color="#1094B4" stop-opacity="0.56"/>
    </linearGradient>
    </defs>
    </svg>
    