<svg width="58" height="59" viewBox="0 0 58 59" fill="none" xmlns="http://www.w3.org/2000/svg">
    <path d="M48.333 5.11914H9.66634C6.99696 5.11914 4.83301 7.2831 4.83301 9.95247V48.6191C4.83301 51.2885 6.99696 53.4525 9.66634 53.4525H48.333C51.0024 53.4525 53.1663 51.2885 53.1663 48.6191V9.95247C53.1663 7.2831 51.0024 5.11914 48.333 5.11914Z" fill="#43919B"/>
    <path d="M28.9997 38.9525C34.3384 38.9525 38.6663 34.6246 38.6663 29.2858C38.6663 23.9471 34.3384 19.6191 28.9997 19.6191C23.6609 19.6191 19.333 23.9471 19.333 29.2858C19.333 34.6246 23.6609 38.9525 28.9997 38.9525Z" fill="#F9FAFB"/>
    <path d="M43.5 18.4106C45.502 18.4106 47.125 16.7877 47.125 14.7856C47.125 12.7836 45.502 11.1606 43.5 11.1606C41.498 11.1606 39.875 12.7836 39.875 14.7856C39.875 16.7877 41.498 18.4106 43.5 18.4106Z" fill="#F9FAFB"/>
    </svg>
    