<svg width="58" height="59" viewBox="0 0 58 59" fill="none" xmlns="http://www.w3.org/2000/svg">
    <path d="M52.2723 17.0089C51.9944 16.7853 51.6704 16.626 51.3236 16.5424C50.9768 16.4588 50.6158 16.4531 50.2665 16.5256C49.3906 16.7218 48.5025 16.859 47.6082 16.9364C46.7827 14.7804 45.2911 12.9438 43.3502 11.6938C41.4093 10.4437 39.1203 9.8452 36.8159 9.98535C34.5116 10.1255 32.312 10.997 30.5369 12.473C28.7618 13.9491 27.5038 15.9529 26.9457 18.1931C20.3482 19.8122 13.8957 13.1906 13.8232 13.1181C13.5183 12.799 13.1319 12.5695 12.7059 12.4545C12.2799 12.3395 11.8305 12.3433 11.4065 12.4656C10.9713 12.5962 10.5817 12.8469 10.2825 13.1888C9.98327 13.5308 9.78652 13.9502 9.71482 14.3989C8.15548 21.5918 9.46475 29.1092 13.364 35.3514C11.413 36.1081 9.34224 36.5091 7.24982 36.5356C6.83452 36.5347 6.42601 36.6409 6.06369 36.8438C5.70137 37.0468 5.39746 37.3397 5.1813 37.6943C4.96513 38.0489 4.844 38.4533 4.82958 38.8683C4.81516 39.2834 4.90795 39.6951 5.09899 40.0639C5.55816 40.958 10.1015 48.6189 27.9848 48.6189C42.0982 48.6189 47.3182 36.0522 48.1882 28.3672C49.8586 27.4539 51.2222 26.0676 52.1079 24.3823C52.9935 22.697 53.3618 20.7877 53.1665 18.8939C53.1677 18.5328 53.088 18.1761 52.9333 17.8499C52.7786 17.5237 52.5527 17.2363 52.2723 17.0089Z" fill="#43919B"/>
    </svg>
    