<svg width="56" height="56" viewBox="0 0 56 56" fill="none" xmlns="http://www.w3.org/2000/svg">
    <path opacity="0.25" d="M28.0002 33.1213C27.5896 33.1213 27.1882 33.014 26.8336 32.811L5.83356 20.6823C5.47887 20.4775 5.18434 20.183 4.97957 19.8283C4.7748 19.4736 4.66699 19.0712 4.66699 18.6617C4.66699 18.2521 4.7748 17.8497 4.97957 17.495C5.18434 17.1403 5.47887 16.8458 5.83356 16.641L26.8336 4.52166C27.5569 4.10866 28.4436 4.10866 29.1669 4.52166L50.1669 16.641C50.5216 16.8458 50.8161 17.1403 51.0209 17.495C51.2256 17.8497 51.3335 18.2521 51.3335 18.6617C51.3335 19.0712 51.2256 19.4736 51.0209 19.8283C50.8161 20.183 50.5216 20.4775 50.1669 20.6823L29.1669 32.811C28.8119 33.0148 28.4096 33.1218 28.0002 33.1213Z" fill="#43919B"/>
    <path opacity="0.5" d="M50.1669 25.9751L45.5842 23.3291L29.1669 32.8118C28.4436 33.2271 27.5569 33.2271 26.8336 32.8118L10.4162 23.3291L5.83356 25.9751C5.47887 26.1799 5.18434 26.4745 4.97957 26.8292C4.7748 27.1839 4.66699 27.5862 4.66699 27.9958C4.66699 28.4053 4.7748 28.8077 4.97957 29.1624C5.18434 29.5171 5.47887 29.8116 5.83356 30.0164L26.8336 42.1451C27.5569 42.5604 28.4436 42.5604 29.1669 42.1451L50.1669 30.0164C50.5216 29.8116 50.8161 29.5171 51.0209 29.1624C51.2256 28.8077 51.3335 28.4053 51.3335 27.9958C51.3335 27.5862 51.2256 27.1839 51.0209 26.8292C50.8161 26.4745 50.5216 26.1799 50.1669 25.9751Z" fill="#43919B"/>
    <path d="M50.1669 35.3081L45.5842 32.6621L29.1669 42.1448C28.4436 42.5601 27.5569 42.5601 26.8336 42.1448L10.4162 32.6621L5.83356 35.3081C5.47887 35.5129 5.18434 35.8075 4.97957 36.1622C4.7748 36.5169 4.66699 36.9192 4.66699 37.3288C4.66699 37.7383 4.7748 38.1407 4.97957 38.4954C5.18434 38.8501 5.47887 39.1446 5.83356 39.3494L26.8336 51.4781C27.5569 51.8934 28.4436 51.8934 29.1669 51.4781L50.1669 39.3494C50.5216 39.1446 50.8161 38.8501 51.0209 38.4954C51.2256 38.1407 51.3335 37.7383 51.3335 37.3288C51.3335 36.9192 51.2256 36.5169 51.0209 36.1622C50.8161 35.8075 50.5216 35.5129 50.1669 35.3081Z" fill="#43919B"/>
    </svg>
    