<svg width="56" height="58" viewBox="0 0 56 58" fill="none" xmlns="http://www.w3.org/2000/svg">
    <path fill-rule="evenodd" clip-rule="evenodd" d="M28.2443 0.613281H27.4437C20.7908 0.753384 14.238 3.41533 9.4065 7.99469C3.74235 13.2385 0.491975 20.8801 0.419922 28.5818V29.2983C0.556022 36.8398 3.71433 44.3053 9.21436 49.4931C14.0859 54.2005 20.7628 56.9425 27.5398 57.0546H28.3244C37.4831 56.9505 46.2975 51.8228 51.061 44.0291C55.136 37.5683 56.3889 29.4424 54.5796 22.033C53.0625 15.6403 49.2357 9.81602 43.9358 5.92517C39.4325 2.56271 33.8604 0.717357 28.2443 0.613281ZM15.8102 23.547C18.3961 24.3036 21.1541 23.8433 23.672 23.0307C25.0595 22.5733 26.4254 22.0504 27.7913 21.5275C29.9995 20.6821 32.2079 19.8367 34.5079 19.2679C37.5862 18.5474 41.0447 19.1278 43.5105 21.1693C43.9984 21.6379 43.9973 22.3149 43.9962 22.9569C43.996 23.1156 43.9957 23.2722 44.0029 23.423C43.9754 25.4894 43.9851 27.5566 43.9949 29.6236C44.0093 32.6696 44.0237 35.7153 43.9188 38.7582C43.5472 38.6002 43.1776 38.4324 42.8075 38.2643C41.2839 37.5726 39.7519 36.877 38.0385 36.8448C34.4653 36.6484 31.1622 37.8343 27.8529 39.0225C25.16 39.9894 22.4631 40.9577 19.613 41.184C17.0271 41.3641 14.3251 40.7516 12.2276 39.1945C11.7979 38.5998 11.8193 37.8553 11.8403 37.1265C11.8489 36.8302 11.8573 36.5364 11.8353 36.2564C11.8752 34.4068 11.8575 32.5538 11.8399 30.7006C11.8114 27.7126 11.783 24.7243 11.9954 21.7497C12.4673 21.9599 12.9213 22.2101 13.3752 22.4601C14.1573 22.891 14.9389 23.3216 15.8102 23.547Z" fill="#108EE9"/>
    </svg>
    