<svg width="56" height="56" viewBox="0 0 56 56" fill="none" xmlns="http://www.w3.org/2000/svg">
    <path fill-rule="evenodd" clip-rule="evenodd" d="M23.5144 0.959537C26.3809 0.4925 29.3219 0.546649 32.202 0.834317C34.8722 1.38596 37.5661 2.00191 40.0164 3.23719C44.9744 5.60283 49.1947 9.43727 52.007 14.1584C54.3388 18.5208 55.943 23.4145 55.7027 28.4132C55.7704 38.6745 49.2691 48.4518 40.0604 52.8142C34.0904 55.6536 27.1458 56.0428 20.7663 54.486C16.4513 53.1594 12.2886 51.0137 9.14456 47.7174C6.14943 44.9389 3.8887 41.3988 2.45375 37.5881C0.582215 32.9008 0.412999 27.6889 1.20832 22.7512C2.66358 15.4174 7.19519 8.69272 13.6085 4.79398C16.5935 2.82768 20.0252 1.66009 23.5144 0.959537ZM19.6845 14.1256C17.5253 14.3456 15.1664 15.1037 13.9717 17.0531C12.6519 18.9202 12.5142 21.2556 12.3834 23.4743L12.3834 23.4745C12.3726 23.6566 12.3619 23.8378 12.3506 24.018C12.3237 24.5777 12.2738 25.1366 12.2238 25.6956L12.2238 25.6956C12.123 26.8235 12.0221 27.9518 12.1103 29.0877C12.1761 29.8548 12.2225 30.6244 12.269 31.394C12.385 33.3172 12.5011 35.2412 12.9192 37.1289C13.437 39.5081 15.5793 41.3525 17.9415 41.7857C22.3441 42.5794 26.829 42.5097 31.287 42.4403C31.6953 42.434 32.1033 42.4276 32.5111 42.422C34.3352 42.3204 36.1594 42.1343 37.9632 41.8466C40.6639 41.4947 43.0499 39.2948 43.4932 36.5874C44.2682 33.2674 44.407 29.8424 44.1768 26.4547C43.7436 24.282 42.2072 22.3225 40.119 21.5271C39.1782 21.0726 38.1347 21.0754 37.1112 21.0781C36.9307 21.0786 36.7508 21.0791 36.5723 21.077C34.5588 21.0795 32.5454 21.0784 30.5321 21.0772H30.532C27.009 21.0753 23.4865 21.0733 19.9654 21.0906C19.5606 21.098 19.1828 20.9596 18.8083 20.8224C18.6694 20.7715 18.5309 20.7207 18.3917 20.6777C18.3815 19.9196 18.4086 18.7858 19.4273 18.7655C22.0797 18.7056 24.7348 18.7233 27.3896 18.7409H27.3896H27.3898C30.8862 18.7642 34.3823 18.7874 37.8718 18.6335C37.4928 16.8737 36.42 15.036 34.5721 14.5487C32.9037 14.1019 31.1776 13.8752 29.4618 13.7161C28.9724 13.71 28.4822 13.7007 27.9916 13.6913C25.2121 13.6382 22.4202 13.5848 19.6845 14.1256ZM38.5828 28.9091C37.6927 28.6688 36.6267 29.0207 36.3153 29.9379C36.1199 30.9937 36.433 32.0109 36.7441 33.0215C36.8747 33.4459 37.005 33.8691 37.0971 34.2935C37.1986 34.3528 37.351 34.4408 37.5034 34.5288C37.6556 34.6168 37.8078 34.7047 37.9093 34.7639C38.2579 34.5609 38.6133 34.3781 38.9821 34.2191C39.022 33.3259 39.2372 32.4669 39.4523 31.6082C39.5478 31.2272 39.6432 30.8463 39.7233 30.4625C39.5575 29.8296 39.1412 29.2509 38.5828 28.9091Z" fill="#01ACD7"/>
    </svg>
    