<svg width="314" height="66" viewBox="0 0 314 66" fill="none" xmlns="http://www.w3.org/2000/svg">
    <g clip-path="url(#clip0_695_1996)" filter="url(#filter0_d_695_1996)">
    <path d="M49.3965 12.1631H81.9716V32.5718H68.3055L81.9716 45.6328H70.3624L56.9603 32.5718V45.6328H49.3965V24.8854H73.2803V19.9194L49.3965 19.919V12.1631Z" fill="black"/>
    <path d="M85.3549 45.6322H93.3159V12.0947H85.3545L85.3549 45.6322Z" fill="black"/>
    <path d="M21.6 37.5373V12.1631H15.3641C14.2361 12.1631 13.3738 13.0481 13.3738 14.1353C13.3738 20.1237 13.3076 37.7417 13.3076 43.5918C13.3076 44.6803 14.1699 45.6323 15.2312 45.6323C19.5436 45.6323 31.9493 45.6323 33.7397 45.6323V37.5373H21.6Z" fill="black"/>
    <path d="M37.8535 53.9997C38.5843 53.9997 44.1565 53.9997 46.0148 53.9997C46.0148 53.9997 46.0148 37.4689 46.0148 37.1973C43.3604 37.1973 40.5753 37.1973 37.8535 37.1973C37.8535 42.7749 37.8535 48.353 37.8535 53.9997Z" fill="black"/>
    <path d="M25.5811 12.1631C25.5811 12.3 25.5811 20.5297 25.5811 20.5297C29.2301 20.5297 33.8731 20.5297 37.8531 20.5297C37.8531 26.3139 37.8531 33.0478 37.8531 33.0478C39.7114 33.0478 45.2837 33.0478 46.0144 33.0478V14.2049C46.0144 13.1155 45.1508 12.2305 44.0908 12.1631C40.1107 12.1631 30.6891 12.1631 25.5811 12.1631Z" fill="black"/>
    <path d="M25.5805 24.6104C25.5805 27.4003 25.5805 30.1902 25.5805 33.1144C26.2442 33.1144 26.9737 33.1144 27.6369 33.1144C29.4956 33.1144 31.8156 33.1144 33.6739 33.1144C33.6739 33.1144 33.6739 24.7477 33.6739 24.6104C31.0195 24.6104 28.3002 24.6104 25.5801 24.6104H25.5805ZM31.286 30.5292C30.4899 30.5292 29.561 30.5292 28.8303 30.5292C28.5663 30.5292 28.3006 30.5292 27.9688 30.5292C27.9688 29.372 27.9688 28.2853 27.9688 27.1286C29.0967 27.1286 30.1585 27.1286 31.286 27.1286C31.286 27.1959 31.286 30.5292 31.286 30.5292Z" fill="black"/>
    <path d="M132.391 37.1973V49.7144C132.391 50.8025 131.462 51.6871 130.402 51.6871H118.195V53.7276H132.391C133.386 53.7276 134.247 52.8434 134.247 51.7549V51.6871V37.1977L132.391 37.1973Z" fill="black"/>
    <path d="M9.99025 20.4625V7.94445C9.99025 6.85728 10.7863 6.0396 11.8477 6.0396H24.0548C24.1214 6.0396 24.1214 5.97223 24.1214 5.97223V4.06781C24.1214 4.06781 24.1214 4 24.0548 4H9.99025C8.86272 4 8 4.88506 8 6.0396V20.4621C8 20.5294 8.06662 20.5294 8.06662 20.5294H9.92405C9.92405 20.5294 9.99025 20.5294 9.99025 20.4621V20.4625Z" fill="black"/>
    <path d="M128.94 20.4628V12.1631H96.7646V24.6111V32.9808H118.195V37.1292H96.7646V45.4967H128.94V24.6811H107.512V20.4628H128.94Z" fill="black"/>
    <path d="M152.162 24.2043H145.063C144.201 24.2043 143.405 24.0674 142.609 23.7283C141.879 23.4566 141.15 22.9802 140.618 22.4342C140.02 21.8235 139.558 21.1427 139.224 20.395C138.893 19.5774 138.694 18.7623 138.694 17.8095C138.694 16.857 138.893 16.0398 139.224 15.2243C139.558 14.4762 139.955 13.7281 140.553 13.1825C141.15 12.5718 141.813 12.1627 142.542 11.8236C143.338 11.4824 144.134 11.3477 145.063 11.3477C145.926 11.3477 146.722 11.4824 147.518 11.8236C148.247 12.1627 148.912 12.5718 149.507 13.1151C150.04 13.7285 150.504 14.3392 150.836 15.1569C151.168 15.905 151.3 16.7201 151.3 17.6051C151.3 18.1489 151.232 18.6945 151.167 19.1709C151.034 19.7143 150.836 20.1903 150.57 20.6667C150.371 21.0758 150.04 21.4818 149.708 21.8235C149.377 22.2299 148.977 22.5042 148.513 22.7063L152.162 22.7059V24.2043ZM144.997 22.639C145.66 22.639 146.323 22.5042 146.856 22.2299C147.386 21.9582 147.915 21.6192 148.315 21.2101C148.711 20.7341 148.977 20.2577 149.244 19.6469C149.442 19.0336 149.575 18.3532 149.575 17.6725C149.575 17.0618 149.442 16.381 149.244 15.8377C148.977 15.2243 148.646 14.7483 148.247 14.3392C147.85 13.8632 147.386 13.5242 146.856 13.3194C146.258 13.0482 145.66 12.9108 144.997 12.9108C144.334 12.9108 143.737 13.0478 143.207 13.3194C142.674 13.5242 142.21 13.8632 141.813 14.3392C141.414 14.7483 141.083 15.2243 140.817 15.8377C140.618 16.381 140.485 16.9918 140.485 17.6725C140.485 18.3532 140.618 18.9666 140.817 19.5774C141.017 20.1907 141.349 20.7341 141.746 21.1427C142.145 21.6187 142.609 21.9582 143.207 22.2299C143.737 22.5042 144.335 22.639 144.998 22.639H144.997Z" fill="black"/>
    <path d="M153.887 11.6191H158.198C158.994 11.6191 159.657 11.7534 160.122 11.9582C160.654 12.2299 161.051 12.5038 161.383 12.8433C161.649 13.1823 161.847 13.5236 161.98 13.9326C162.113 14.3386 162.113 14.7477 162.113 15.1567C162.113 15.5627 162.048 15.9718 161.915 16.3135C161.781 16.7199 161.583 17.0616 161.317 17.3333C161.051 17.6723 160.787 17.8766 160.388 18.0809C159.991 18.2857 159.592 18.4204 159.128 18.49L162.643 24.2041H160.521L157.403 18.6943H155.544V24.2041H153.887V11.6191ZM155.544 17.1963H157.734C158.065 17.1963 158.397 17.1963 158.731 17.1285C158.994 17.0611 159.326 16.9916 159.527 16.7895C159.79 16.6525 159.991 16.4482 160.122 16.1761C160.323 15.9718 160.388 15.5627 160.388 15.1567C160.388 14.7477 160.323 14.4086 160.122 14.1343C159.992 13.8626 159.79 13.6583 159.527 13.5236C159.326 13.3866 158.994 13.2519 158.731 13.2519C158.397 13.1823 158.065 13.1149 157.734 13.1149H155.544V17.1963Z" fill="black"/>
    <path d="M177.836 14.3392C177.504 13.9328 177.039 13.5242 176.509 13.3194C175.977 13.0482 175.447 12.9108 174.85 12.9108C174.187 12.9108 173.524 13.0478 172.994 13.3194C172.461 13.5911 171.932 13.9328 171.533 14.4092C171.136 14.8852 170.87 15.4286 170.606 16.0398C170.405 16.6531 170.272 17.3335 170.272 18.0142C170.272 18.6945 170.405 19.3057 170.606 19.9186C170.804 20.5293 171.136 21.0758 171.533 21.4818C171.932 21.9582 172.396 22.2999 172.926 22.5711C173.524 22.8428 174.186 22.9802 174.85 22.9802C175.58 22.9802 176.178 22.7759 176.708 22.5042C177.238 22.2299 177.703 21.8235 178.102 21.2775L179.495 22.3668C179.362 22.5038 179.229 22.6385 178.963 22.9106C178.764 23.1149 178.433 23.3866 178.101 23.6583C177.702 23.8631 177.238 24.0674 176.708 24.2717C176.178 24.4764 175.515 24.5434 174.849 24.5434C173.855 24.5434 172.994 24.3391 172.197 24C171.467 23.5909 170.804 23.1149 170.206 22.5038C169.676 21.8904 169.277 21.1427 168.946 20.3946C168.68 19.6469 168.549 18.8292 168.549 18.0138C168.549 17.0613 168.68 16.1763 169.011 15.3612C169.345 14.5435 169.742 13.7959 170.34 13.2521C170.87 12.6387 171.532 12.1627 172.329 11.8236C173.125 11.4824 173.988 11.3477 174.917 11.3477C175.713 11.3477 176.509 11.4824 177.305 11.8236C178.102 12.1627 178.699 12.6387 179.229 13.3194L177.836 14.3392Z" fill="black"/>
    <path d="M180.688 19.9866C180.688 19.3732 180.821 18.8294 181.02 18.286C181.286 17.7426 181.552 17.2667 181.949 16.925C182.348 16.5159 182.813 16.1769 183.342 15.9725C183.872 15.7009 184.47 15.5635 185.068 15.5635C185.665 15.5635 186.261 15.7004 186.793 15.9725C187.323 16.1769 187.788 16.5159 188.186 16.925C188.583 17.2662 188.849 17.7426 189.113 18.286C189.314 18.8298 189.445 19.3732 189.445 19.9866C189.445 20.6669 189.314 21.2102 189.113 21.754C188.849 22.3 188.583 22.776 188.186 23.1825C187.787 23.5241 187.323 23.8632 186.793 24.0675C186.261 24.3392 185.665 24.4088 185.068 24.4088C184.47 24.4088 183.872 24.3392 183.342 24.0675C182.813 23.8632 182.348 23.5241 181.949 23.1825C181.552 22.776 181.286 22.3 181.02 21.754C180.821 21.2102 180.688 20.6669 180.688 19.9866ZM182.348 19.9866C182.348 20.4625 182.414 20.8712 182.547 21.2102C182.68 21.5519 182.879 21.891 183.077 22.0953C183.343 22.367 183.609 22.5713 183.94 22.706C184.272 22.843 184.669 22.9803 185.068 22.9803C185.465 22.9803 185.864 22.8434 186.196 22.706C186.527 22.5713 186.793 22.367 187.057 22.0953C187.258 21.891 187.457 21.5519 187.589 21.2102C187.723 20.8712 187.788 20.4625 187.788 19.9866C187.788 19.5775 187.723 19.1711 187.589 18.8294C187.457 18.4903 187.258 18.1491 187.057 17.9443C186.793 17.6726 186.527 17.4683 186.196 17.3336C185.864 17.1293 185.465 17.0619 185.068 17.0619C184.669 17.0619 184.272 17.1297 183.94 17.3336C183.609 17.4683 183.343 17.6726 183.077 17.9443C182.878 18.1491 182.68 18.4903 182.547 18.8294C182.414 19.1711 182.348 19.5775 182.348 19.9866Z" fill="black"/>
    <path d="M199.597 24.2049H198.071V23.0481H198.005C197.739 23.4572 197.275 23.7962 196.745 24.0679C196.28 24.3396 195.683 24.4092 195.153 24.4092C194.555 24.4092 193.957 24.3396 193.427 24.1353C192.895 23.8636 192.499 23.5915 192.099 23.1829C191.768 22.7765 191.502 22.3 191.303 21.754C191.104 21.2106 190.972 20.6668 190.972 19.9865C190.972 19.3732 191.104 18.8294 191.303 18.2864C191.502 17.7426 191.768 17.2666 192.099 16.8576C192.499 16.449 192.895 16.1773 193.427 15.9052C193.957 15.7008 194.555 15.5639 195.153 15.5639C195.748 15.5639 196.28 15.7008 196.81 15.973C197.34 16.2446 197.739 16.5863 198.005 16.9923H198.071V10.8018L199.597 10.8022V24.2049ZM195.351 22.9808C195.748 22.9808 196.147 22.8438 196.479 22.7064C196.81 22.5717 197.076 22.3674 197.34 22.0957C197.541 21.8914 197.739 21.5523 197.873 21.2106C198.005 20.8716 198.071 20.463 198.071 19.987C198.071 19.5779 198.005 19.1715 197.873 18.8298C197.739 18.4907 197.541 18.1495 197.34 17.9447C197.077 17.6731 196.81 17.4688 196.479 17.334C196.147 17.1297 195.748 17.0623 195.351 17.0623C194.952 17.0623 194.555 17.1301 194.224 17.334C193.892 17.4688 193.626 17.6731 193.36 17.9447C193.161 18.1495 192.963 18.4907 192.83 18.8298C192.697 19.1715 192.631 19.5779 192.631 19.987C192.631 20.463 192.697 20.8716 192.83 21.2106C192.963 21.5523 193.161 21.8914 193.36 22.0957C193.626 22.3674 193.892 22.5717 194.224 22.7064C194.555 22.8434 194.952 22.9808 195.351 22.9808Z" fill="black"/>
    <path d="M203.113 20.599C203.113 20.9385 203.246 21.2776 203.377 21.6189C203.51 21.8905 203.71 22.1627 203.974 22.367C204.24 22.5713 204.572 22.7756 204.903 22.9103C205.235 22.9803 205.566 23.0473 205.898 23.0473C206.43 23.0473 206.827 22.9103 207.158 22.706C207.558 22.5039 207.889 22.1626 208.155 21.8232L209.348 22.706C208.486 23.8628 207.291 24.4088 205.699 24.4088C205.036 24.4088 204.506 24.3392 203.974 24.1344C203.444 23.8628 202.98 23.5911 202.581 23.182C202.249 22.7756 201.985 22.2996 201.785 21.7536C201.586 21.2098 201.453 20.6664 201.453 19.9861C201.453 19.3727 201.586 18.8289 201.785 18.2856C201.985 17.7422 202.317 17.2662 202.714 16.8572C203.045 16.4481 203.51 16.1769 204.042 15.9047C204.572 15.7004 205.102 15.5635 205.7 15.5635C206.43 15.5635 207.093 15.7004 207.558 15.9721C208.088 16.2438 208.487 16.5855 208.818 16.9919C209.15 17.401 209.348 17.8769 209.481 18.4203C209.68 18.9663 209.748 19.5097 209.748 20.0535V20.599H203.113ZM208.088 19.3054C208.022 18.9663 208.022 18.6246 207.889 18.3529C207.824 18.0813 207.623 17.8091 207.425 17.6048C207.226 17.3331 207.025 17.1962 206.694 17.0615C206.43 16.9245 206.099 16.8567 205.699 16.8567C205.302 16.8567 204.971 16.9245 204.637 17.1284C204.306 17.2653 204.042 17.4674 203.841 17.6722C203.642 17.8765 203.444 18.1482 203.311 18.4899C203.178 18.7616 203.113 19.0333 203.113 19.3049L208.088 19.3054Z" fill="black"/>
    <path d="M217.178 21.6192C217.441 22.0282 217.841 22.3673 218.305 22.639C218.77 22.8433 219.3 22.9802 219.764 22.9802C220.031 22.9802 220.362 22.9106 220.626 22.8433C220.892 22.7063 221.158 22.5716 221.422 22.4342C221.623 22.2299 221.821 22.0282 221.954 21.7539C222.153 21.4822 222.218 21.2101 222.218 20.871C222.218 20.3951 222.087 19.9864 221.754 19.7143C221.49 19.51 221.091 19.3052 220.626 19.1009C220.229 18.8966 219.697 18.7619 219.167 18.6249C218.637 18.4206 218.172 18.2185 217.708 17.9442C217.308 17.6725 216.912 17.2661 216.646 16.7901C216.314 16.3141 216.181 15.7007 216.181 14.8157C216.181 14.4766 216.249 14.0676 216.382 13.6589C216.581 13.2525 216.779 12.9108 217.11 12.5718C217.442 12.1627 217.906 11.891 218.439 11.6867C218.969 11.415 219.566 11.3477 220.295 11.3477C221.025 11.3477 221.623 11.415 222.218 11.6193C222.884 11.8236 223.414 12.1627 223.878 12.7761L222.484 14.0002C222.286 13.7285 222.02 13.4564 221.623 13.2521C221.224 13.0478 220.827 12.9108 220.295 12.9108C219.83 12.9108 219.499 12.9804 219.167 13.1151C218.835 13.2521 218.637 13.3868 218.439 13.5911C218.238 13.7959 218.105 14.0002 218.039 14.2045C217.974 14.4762 217.906 14.6805 217.906 14.8152C217.906 15.3612 218.105 15.7677 218.371 16.1093C218.702 16.381 219.034 16.5853 219.498 16.7896C219.963 16.9244 220.428 17.1287 220.957 17.2656C221.49 17.4004 221.954 17.6051 222.419 17.8095C222.883 18.0811 223.215 18.4202 223.547 18.8966C223.81 19.3052 223.943 19.9186 223.943 20.6663C223.943 21.277 223.878 21.8235 223.611 22.2995C223.413 22.7755 223.081 23.1823 222.75 23.5236C222.351 23.8626 221.886 24.1343 221.356 24.2717C220.892 24.476 220.294 24.5434 219.697 24.5434C218.901 24.5434 218.172 24.4086 217.509 24.1343C216.779 23.8626 216.249 23.3862 215.784 22.7755L217.178 21.6192Z" fill="black"/>
    <path d="M230.444 17.1962H228.189V21.0055C228.189 21.2771 228.189 21.4814 228.189 21.6862C228.257 21.9579 228.257 22.1622 228.322 22.3665C228.455 22.5035 228.521 22.6382 228.719 22.7756C228.852 22.9103 229.053 22.9799 229.384 22.9799C229.583 22.9799 229.781 22.9103 229.98 22.9103C230.18 22.8425 230.314 22.7756 230.512 22.7056V24.1344C230.314 24.2714 230.048 24.3392 229.781 24.4087C229.45 24.4087 229.251 24.4087 229.119 24.4087C228.455 24.4087 227.991 24.3392 227.725 24.2044C227.393 23.9997 227.128 23.7954 226.996 23.5237C226.796 23.252 226.73 22.9103 226.663 22.5713C226.663 22.23 226.663 21.891 226.663 21.5515V17.1962H224.872V15.8373H226.662V13.4561H228.189V15.8373H230.444V17.1962Z" fill="black"/>
    <path d="M232.501 16.8572C232.9 16.4485 233.43 16.1095 234.028 15.9047C234.557 15.7004 235.155 15.5635 235.753 15.5635C236.35 15.5635 236.88 15.7004 237.277 15.8378C237.742 15.9725 238.076 16.1768 238.34 16.4485C238.606 16.7202 238.872 16.9919 238.993 17.3336C239.063 17.6726 239.133 18.0139 239.133 18.4208V22.706C239.133 22.9803 239.203 23.252 239.203 23.5241C239.203 23.7954 239.203 24.0001 239.273 24.2044H237.875C237.809 23.7954 237.809 23.3868 237.809 22.9803H237.742C237.41 23.5241 237.014 23.8632 236.549 24.1349C236.085 24.3392 235.487 24.4088 234.89 24.4088C234.493 24.4088 234.161 24.4088 233.83 24.2718C233.43 24.2044 233.167 24.0001 232.901 23.7958C232.635 23.5915 232.436 23.3198 232.303 22.9808C232.105 22.7065 232.037 22.3 232.037 21.8914C232.037 21.3476 232.17 20.939 232.436 20.5299C232.635 20.1909 232.966 19.8492 233.365 19.6471C233.762 19.4428 234.294 19.2384 234.824 19.1711C235.354 19.0341 235.952 19.0341 236.549 19.0341L237.742 19.0337V18.6251C237.742 18.4208 237.676 18.2186 237.611 18.0143C237.544 17.8096 237.41 17.6053 237.212 17.401C237.079 17.2662 236.88 17.1293 236.614 16.9919C236.351 16.9245 236.085 16.8572 235.753 16.8572C235.487 16.8572 235.223 16.925 234.957 16.9919C234.758 16.9919 234.557 17.1288 234.359 17.1966C234.161 17.2662 234.028 17.401 233.83 17.4683C233.696 17.6053 233.563 17.7422 233.43 17.8096L232.501 16.8572ZM236.88 20.1909C236.481 20.1909 236.15 20.1909 235.753 20.2582C235.353 20.2582 235.022 20.3952 234.691 20.4626C234.359 20.5995 234.093 20.7342 233.895 21.0063C233.696 21.2107 233.628 21.4823 233.628 21.824C233.628 22.3 233.762 22.6391 234.093 22.8438C234.425 23.0481 234.823 23.1829 235.354 23.1829C235.818 23.1829 236.15 23.1155 236.481 22.9112C236.747 22.7765 237.013 22.5722 237.212 22.3674C237.41 22.0962 237.543 21.8914 237.611 21.5524C237.676 21.278 237.741 21.0064 237.741 20.7347V20.1909H236.88Z" fill="black"/>
    <path d="M241.468 15.8374H242.985V17.1288H243.055C243.242 16.6528 243.592 16.3138 244.036 16.0395C244.502 15.7004 245.11 15.5635 245.693 15.5635C246.113 15.5635 246.51 15.633 246.907 15.7678C247.234 15.9047 247.561 16.109 247.818 16.3812C248.098 16.5855 248.285 16.9245 248.495 17.3336C248.635 17.7427 248.682 18.286 248.682 18.8294V24.2044H247.164V19.238C247.164 18.8294 247.094 18.5577 246.954 18.2186C246.907 17.9443 246.767 17.7426 246.557 17.6053C246.44 17.401 246.23 17.2662 245.974 17.1962C245.763 17.1288 245.506 17.0615 245.296 17.0615C244.97 17.0615 244.643 17.1293 244.386 17.2662C244.106 17.3336 243.849 17.5379 243.639 17.7422C243.452 18.0139 243.312 18.2856 243.172 18.6246C243.055 18.9663 242.985 19.3727 242.985 19.9187V24.2044L241.468 24.204V15.8374Z" fill="black"/>
    <path d="M259.302 24.2053H257.715V23.0481C257.388 23.4572 256.991 23.7962 256.454 24.0679C255.918 24.3396 255.381 24.4092 254.867 24.4092C254.19 24.4092 253.653 24.3396 253.14 24.1353C252.603 23.8636 252.136 23.5915 251.809 23.1829C251.412 22.7765 251.156 22.3 250.945 21.754C250.735 21.2106 250.688 20.6668 250.688 19.9865C250.688 19.3732 250.735 18.8294 250.945 18.2864C251.156 17.7426 251.412 17.2666 251.809 16.8576C252.136 16.449 252.603 16.1773 253.14 15.9052C253.653 15.7008 254.19 15.5639 254.867 15.5639C255.451 15.5639 255.987 15.7008 256.525 15.973C257.038 16.2446 257.435 16.5863 257.715 16.9923V10.8018L259.302 10.8022V24.2053ZM255.054 22.9808C255.45 22.9808 255.848 22.8438 256.174 22.7064C256.524 22.5717 256.781 22.3674 256.991 22.0957C257.248 21.8914 257.435 21.5523 257.505 21.2106C257.645 20.8716 257.715 20.463 257.715 19.987C257.715 19.5779 257.645 19.1715 257.505 18.8298C257.435 18.4907 257.248 18.1495 256.991 17.9447C256.781 17.6731 256.524 17.4688 256.174 17.334C255.847 17.1297 255.45 17.0623 255.054 17.0623C254.587 17.0623 254.26 17.1301 253.933 17.334C253.606 17.4688 253.256 17.6731 253.069 17.9447C252.812 18.1495 252.672 18.4907 252.532 18.8298C252.392 19.1715 252.346 19.5779 252.346 19.987C252.346 20.463 252.392 20.8716 252.532 21.2106C252.672 21.5523 252.812 21.8914 253.069 22.0957C253.256 22.3674 253.606 22.5717 253.933 22.7064C254.26 22.8434 254.587 22.9808 255.054 22.9808Z" fill="black"/>
    <path d="M261.684 16.8572C262.15 16.4485 262.618 16.1095 263.224 15.9047C263.808 15.7004 264.345 15.5635 264.951 15.5635C265.535 15.5635 266.072 15.7004 266.469 15.8378C266.936 15.9725 267.263 16.1768 267.519 16.4485C267.869 16.7202 268.056 16.9919 268.196 17.3336C268.336 17.6726 268.383 18.0139 268.383 18.4208V22.706C268.383 22.9803 268.383 23.252 268.383 23.5241C268.383 23.7954 268.383 24.0001 268.453 24.2044L267.076 24.2049C267.006 23.7958 267.006 23.3868 267.006 22.9808C266.609 23.5241 266.212 23.8632 265.746 24.1349C265.279 24.3396 264.742 24.4092 264.088 24.4092C263.692 24.4092 263.341 24.4092 263.014 24.2723C262.688 24.2049 262.361 24.0006 262.081 23.7963C261.824 23.5915 261.637 23.3203 261.497 22.9808C261.357 22.7069 261.217 22.3005 261.217 21.8914C261.217 21.348 261.357 20.939 261.637 20.5304C261.824 20.1909 262.151 19.8496 262.548 19.6475C263.014 19.4432 263.482 19.2384 264.018 19.1715C264.556 19.0346 265.139 19.0346 265.816 19.0346L266.936 19.0337V18.6251C266.936 18.4208 266.866 18.2186 266.796 18.0143C266.726 17.8096 266.609 17.6053 266.399 17.401C266.259 17.2662 266.072 17.1293 265.816 16.9919C265.606 16.9245 265.279 16.8572 264.952 16.8572C264.672 16.8572 264.415 16.925 264.158 16.9919C263.948 16.9919 263.738 17.1288 263.552 17.1966C263.342 17.2662 263.225 17.401 263.085 17.4679C262.898 17.6053 262.758 17.7422 262.618 17.8096L261.684 16.8572ZM266.072 20.1909C265.745 20.1909 265.349 20.1909 264.952 20.2582C264.555 20.2582 264.205 20.3952 263.878 20.4626C263.551 20.5995 263.341 20.7342 263.084 21.0063C262.898 21.2107 262.828 21.4823 262.828 21.824C262.828 22.3 262.944 22.6391 263.294 22.8438C263.622 23.0481 264.018 23.1829 264.601 23.1829C264.998 23.1829 265.349 23.1155 265.675 22.9112C266.002 22.7765 266.212 22.5722 266.399 22.3674C266.609 22.0962 266.726 21.8914 266.796 21.5524C266.866 21.278 266.936 21.0064 266.936 20.7347V20.1909H266.072Z" fill="black"/>
    <path d="M270.648 15.8374H272.166V17.1288H272.236C272.306 16.8571 272.516 16.6528 272.632 16.5155C272.842 16.3133 273.029 16.1764 273.239 16.0395C273.426 15.9047 273.706 15.7678 273.963 15.7004C274.173 15.6326 274.43 15.5635 274.687 15.5635C274.967 15.5635 275.153 15.633 275.364 15.7004L275.293 17.4005C275.153 17.4005 275.083 17.3331 274.967 17.3331C274.827 17.3331 274.687 17.3331 274.57 17.3331C273.776 17.3331 273.239 17.5375 272.842 17.9439C272.376 18.4199 272.166 19.1006 272.166 19.9857V24.204L270.648 24.2044V15.8374Z" fill="black"/>
    <path d="M139.49 32.9805H143.802C144.598 32.9805 145.263 33.0478 145.725 33.3195C146.258 33.5238 146.655 33.7955 146.921 34.1359C147.252 34.4758 147.451 34.8162 147.584 35.2922C147.652 35.7004 147.716 36.1086 147.716 36.5167C147.716 36.8567 147.652 37.2649 147.584 37.6735C147.451 38.1495 147.252 38.4894 146.92 38.8298C146.655 39.1702 146.257 39.4418 145.725 39.6461C145.263 39.9178 144.598 39.9861 143.802 39.9861H141.15V45.5641H139.49V32.9805ZM141.15 38.4894H143.337C143.669 38.4894 144.003 38.4894 144.266 38.4211C144.598 38.3533 144.864 38.2851 145.13 38.1495C145.394 38.0134 145.595 37.8091 145.725 37.5374C145.859 37.2653 145.992 36.9249 145.992 36.5167C145.992 36.0407 145.859 35.7004 145.725 35.4283C145.595 35.1561 145.394 34.9522 145.13 34.8162C144.864 34.6797 144.598 34.6119 144.266 34.5436C144.003 34.4758 143.669 34.4758 143.337 34.4758H141.15V38.4894Z" fill="black"/>
    <path d="M150.569 41.8908C150.569 42.299 150.634 42.6389 150.767 42.9115C150.9 43.2514 151.099 43.4553 151.365 43.7279C151.631 43.9317 151.962 44.0678 152.294 44.2038C152.626 44.3399 152.957 44.3399 153.289 44.3399C153.821 44.3399 154.218 44.2717 154.549 44C154.948 43.7957 155.28 43.4557 155.544 43.1154L156.739 43.9995C155.878 45.1558 154.682 45.7683 153.09 45.7683C152.427 45.7683 151.895 45.6323 151.365 45.4284C150.835 45.2241 150.37 44.8842 150.039 44.476C149.64 44.0678 149.376 43.5914 149.175 43.0471C148.977 42.5711 148.844 41.9591 148.844 41.3466C148.844 40.7345 148.977 40.1225 149.175 39.5782C149.376 39.034 149.708 38.5575 150.105 38.1498C150.436 37.8094 150.9 37.4695 151.43 37.2652C151.963 36.9931 152.492 36.9248 153.09 36.9248C153.821 36.9248 154.483 37.0609 154.948 37.333C155.478 37.5373 155.878 37.8772 156.209 38.3537C156.54 38.7614 156.739 39.2378 156.872 39.7138C157.07 40.2581 157.138 40.8023 157.138 41.3466V41.8908H150.569ZM155.478 40.6663C155.413 40.2581 155.413 39.9859 155.28 39.646C155.212 39.3739 155.014 39.1018 154.88 38.8975C154.682 38.6936 154.416 38.4893 154.084 38.3532C153.821 38.2172 153.487 38.2172 153.09 38.2172C152.691 38.2172 152.36 38.285 152.028 38.421C151.696 38.5575 151.43 38.7614 151.232 38.9657C151.033 39.2374 150.835 39.51 150.702 39.7816C150.569 40.0538 150.569 40.3263 150.569 40.6663H155.478Z" fill="black"/>
    <path d="M158.994 37.1287H160.453V38.421C160.521 38.285 160.586 38.1494 160.719 38.0133C160.918 37.809 161.051 37.6734 161.317 37.469C161.515 37.333 161.781 37.1974 162.113 37.0609C162.379 36.993 162.71 36.9248 163.107 36.9248C163.705 36.9248 164.235 37.0609 164.634 37.333C165.099 37.5373 165.43 37.945 165.696 38.4897C165.96 37.9455 166.292 37.5373 166.824 37.333C167.288 37.0609 167.753 36.9248 168.283 36.9248C168.88 36.9248 169.41 36.9931 169.81 37.1974C170.207 37.469 170.538 37.7412 170.804 38.0815C171.003 38.4215 171.201 38.8297 171.269 39.2379C171.334 39.7138 171.402 40.1903 171.402 40.6663V45.564H169.81V40.8701C169.81 40.5302 169.81 40.1903 169.742 39.9177C169.742 39.646 169.677 39.3739 169.543 39.1696C169.41 38.8975 169.212 38.7614 169.011 38.6254C168.748 38.4893 168.416 38.421 168.084 38.421C167.288 38.421 166.756 38.6254 166.425 39.1013C166.159 39.5778 165.96 40.1903 165.96 40.9384V45.564H164.436V41.1427C164.436 40.7345 164.368 40.3941 164.368 40.0542C164.303 39.7138 164.235 39.4422 164.102 39.17C163.971 38.8975 163.838 38.7614 163.572 38.6258C163.374 38.4897 163.043 38.4215 162.711 38.4215C162.379 38.4215 162.113 38.4897 161.847 38.5575C161.583 38.6936 161.382 38.8297 161.184 39.1018C160.986 39.3056 160.852 39.5778 160.719 39.9177C160.586 40.2581 160.521 40.6663 160.521 41.1423V45.564H158.994V37.1287Z" fill="black"/>
    <path d="M173.723 32.0957H175.314V38.3541C175.646 37.8777 176.045 37.5377 176.51 37.2656C177.04 37.0613 177.637 36.9252 178.167 36.9252C178.83 36.9252 179.428 36.9935 179.892 37.2656C180.425 37.4695 180.887 37.8098 181.221 38.1502C181.618 38.5579 181.884 39.0344 182.083 39.5786C182.281 40.1229 182.349 40.7349 182.349 41.347C182.349 41.9595 182.281 42.5715 182.083 43.0475C181.884 43.5918 181.617 44.0682 181.221 44.4764C180.887 44.8846 180.425 45.2245 179.892 45.4284C179.428 45.6327 178.83 45.7687 178.167 45.7687C177.637 45.7687 177.108 45.6327 176.575 45.3605C176.046 45.1567 175.646 44.8167 175.315 44.3403V45.5644H173.723V32.0957ZM178.034 44.2721C178.433 44.2721 178.83 44.2043 179.164 44.0682C179.496 43.8643 179.76 43.66 179.96 43.4557C180.224 43.1836 180.425 42.8437 180.49 42.5033C180.623 42.1634 180.689 41.7552 180.689 41.347C180.689 40.9388 180.623 40.5306 180.49 40.1224C180.425 39.782 180.224 39.5104 179.96 39.2378C179.76 38.9657 179.496 38.7618 179.164 38.6253C178.83 38.4892 178.433 38.4214 178.034 38.4214C177.572 38.4214 177.238 38.4892 176.907 38.6253C176.575 38.7618 176.244 38.9661 176.045 39.2378C175.779 39.5104 175.646 39.7821 175.515 40.1229C175.382 40.5306 175.314 40.9388 175.314 41.347C175.314 41.7552 175.382 42.1633 175.515 42.5037C175.646 42.8436 175.779 43.184 176.045 43.4561C176.244 43.66 176.575 43.8643 176.907 44.0682C177.238 44.2043 177.572 44.2725 178.034 44.2725V44.2721Z" fill="black"/>
    <path d="M184.337 38.1494C184.801 37.7412 185.333 37.4012 185.863 37.1969C186.461 36.9926 187.056 36.9248 187.654 36.9248C188.251 36.9248 188.716 36.9926 189.181 37.1287C189.577 37.2647 189.977 37.4686 190.243 37.7412C190.506 38.0129 190.705 38.3532 190.838 38.6254C190.971 38.9653 191.039 39.3739 191.039 39.7138V43.9995C191.039 44.3395 191.039 44.6116 191.039 44.8159C191.104 45.088 191.104 45.2919 191.104 45.564H189.71C189.71 45.088 189.71 44.6798 189.71 44.2717H189.645C189.314 44.8159 188.915 45.2241 188.45 45.4279C187.92 45.6323 187.39 45.7683 186.792 45.7683C186.393 45.7683 185.996 45.7005 185.665 45.564C185.333 45.4962 185 45.3602 184.801 45.088C184.537 44.8842 184.337 44.612 184.138 44.3399C184.005 44 183.939 43.6596 183.939 43.2514C183.939 42.7072 184.073 42.2308 184.271 41.8908C184.537 41.4826 184.869 41.2105 185.266 40.9384C185.665 40.7341 186.13 40.5984 186.725 40.4624C187.257 40.3941 187.852 40.3263 188.45 40.3263H189.578V39.9864C189.578 39.7821 189.577 39.51 189.444 39.3061C189.379 39.1022 189.246 38.8979 189.113 38.7619C188.982 38.558 188.716 38.4219 188.517 38.3537C188.251 38.2181 187.985 38.218 187.654 38.218C187.322 38.218 187.056 38.2181 186.858 38.2859C186.592 38.3532 186.393 38.421 186.26 38.4893C186.062 38.5575 185.863 38.6936 185.73 38.8297C185.597 38.8975 185.464 39.0335 185.266 39.17L184.337 38.1494ZM188.781 41.4826C188.385 41.4826 187.985 41.4826 187.654 41.5509C187.257 41.6187 186.926 41.6865 186.592 41.8226C186.26 41.8908 185.996 42.0947 185.796 42.299C185.597 42.5029 185.464 42.775 185.464 43.1154C185.464 43.5913 185.665 43.9317 185.997 44.1356C186.26 44.3399 186.725 44.476 187.257 44.476C187.654 44.476 188.053 44.4077 188.317 44.2717C188.649 44.1356 188.915 43.9317 189.047 43.6596C189.246 43.4557 189.379 43.1836 189.444 42.9115C189.577 42.5711 189.578 42.299 189.578 42.0269V41.4826H188.781Z" fill="black"/>
    <path d="M192.365 37.1289H194.156L196.612 43.7277L198.932 37.1289H200.592L196.745 47.333C196.612 47.7412 196.411 48.0816 196.28 48.3533C196.147 48.6258 195.949 48.8975 195.748 49.1018C195.55 49.374 195.283 49.51 195.02 49.6461C194.688 49.7143 194.354 49.7822 193.892 49.7822C193.691 49.7822 193.427 49.7822 193.227 49.7822C192.963 49.7143 192.762 49.6461 192.563 49.5783L192.762 48.1494C193.028 48.2177 193.36 48.2859 193.691 48.2859C193.892 48.2859 194.091 48.2859 194.289 48.2177C194.422 48.1494 194.555 48.0816 194.688 47.9455C194.818 47.8095 194.952 47.6734 195.02 47.4696C195.085 47.3335 195.153 47.1292 195.218 46.9253L195.748 45.5647L192.365 37.1289Z" fill="black"/>
    <path d="M201.985 38.1494C202.45 37.7412 202.98 37.4012 203.51 37.1969C204.107 36.9926 204.705 36.9248 205.302 36.9248C205.898 36.9248 206.362 36.9926 206.827 37.1287C207.226 37.2647 207.623 37.4686 207.889 37.7412C208.155 38.0129 208.354 38.3532 208.487 38.6254C208.62 38.9653 208.685 39.3739 208.685 39.7138V43.9995C208.685 44.3395 208.685 44.6116 208.751 44.8159C208.751 45.088 208.751 45.2919 208.751 45.564H207.359C207.359 45.088 207.359 44.6798 207.359 44.2717H207.292C206.96 44.8159 206.563 45.2241 206.099 45.4279C205.566 45.6323 205.036 45.7683 204.439 45.7683C204.042 45.7683 203.643 45.7005 203.311 45.564C202.98 45.4962 202.714 45.3602 202.45 45.088C202.183 44.8842 201.985 44.612 201.784 44.3399C201.654 44 201.586 43.6596 201.586 43.2514C201.586 42.7072 201.719 42.2308 201.917 41.8908C202.183 41.4826 202.515 41.2105 202.914 40.9384C203.311 40.7341 203.776 40.5984 204.373 40.4624C204.903 40.3941 205.501 40.3263 206.098 40.3263H207.226V39.9864C207.226 39.7821 207.226 39.51 207.093 39.3061C207.025 39.1022 206.895 38.8979 206.761 38.7619C206.629 38.558 206.362 38.4219 206.164 38.3537C205.898 38.2181 205.634 38.218 205.302 38.218C204.971 38.218 204.705 38.2181 204.506 38.2859C204.306 38.3532 204.042 38.421 203.909 38.4893C203.71 38.5575 203.51 38.6936 203.377 38.8297C203.246 38.8975 203.113 39.0335 202.98 39.17L201.985 38.1494ZM206.43 41.4826C206.031 41.4826 205.634 41.4826 205.302 41.5509C204.904 41.6187 204.572 41.6865 204.24 41.8226C203.909 41.8908 203.643 42.0947 203.444 42.299C203.246 42.5029 203.113 42.775 203.113 43.1154C203.113 43.5913 203.311 43.9317 203.643 44.1356C203.909 44.3399 204.374 44.476 204.903 44.476C205.368 44.476 205.699 44.4077 206.031 44.2717C206.297 44.1356 206.563 43.9317 206.694 43.6596C206.895 43.4557 207.025 43.1836 207.093 42.9115C207.226 42.5711 207.226 42.299 207.226 42.0269V41.4826H206.43Z" fill="black"/>
    <path d="M210.939 37.1287H212.532V38.421C212.665 38.2172 212.798 38.0133 212.996 37.809C213.129 37.6051 213.328 37.469 213.528 37.333C213.792 37.1974 213.991 37.1291 214.257 36.993C214.523 36.9248 214.787 36.9248 215.053 36.9248C215.251 36.9248 215.517 36.9248 215.716 36.993L215.65 38.7614C215.517 38.6936 215.384 38.6936 215.251 38.6258C215.121 38.6258 214.987 38.6258 214.855 38.6258C214.124 38.6258 213.528 38.8297 213.129 39.2379C212.732 39.7138 212.532 40.3946 212.532 41.347V45.564H210.939V37.1287Z" fill="black"/>
    <path d="M217.441 38.1494C217.841 37.7412 218.37 37.4012 218.968 37.1969C219.498 36.9926 220.096 36.9248 220.693 36.9248C221.291 36.9248 221.753 36.9926 222.217 37.1287C222.682 37.2647 223.014 37.4691 223.28 37.7412C223.546 38.0133 223.744 38.3532 223.877 38.6254C224.01 38.9657 224.076 39.3739 224.076 39.7138V43.9995C224.076 44.3395 224.076 44.6116 224.144 44.8159C224.144 45.088 224.144 45.2919 224.144 45.564H222.815C222.75 45.088 222.75 44.6798 222.75 44.2717H222.682C222.351 44.8159 221.954 45.2241 221.489 45.4284C221.025 45.6323 220.427 45.7683 219.83 45.7683C219.433 45.7683 219.101 45.7005 218.702 45.564C218.37 45.4962 218.104 45.3602 217.84 45.088C217.574 44.8842 217.376 44.612 217.177 44.3399C217.044 44 216.977 43.6596 216.977 43.2514C216.977 42.7072 217.11 42.2308 217.308 41.8908C217.574 41.4826 217.905 41.2105 218.305 40.9384C218.702 40.7341 219.166 40.5984 219.764 40.4624C220.294 40.3941 220.892 40.3263 221.489 40.3263H222.617V39.9864C222.617 39.7821 222.617 39.51 222.551 39.3061C222.418 39.1022 222.351 38.8979 222.152 38.7619C222.019 38.558 221.821 38.4219 221.555 38.3537C221.291 38.2181 221.025 38.218 220.693 38.218C220.361 38.218 220.096 38.2181 219.897 38.2859C219.696 38.3532 219.498 38.421 219.299 38.4893C219.101 38.5575 218.9 38.6936 218.769 38.8297C218.637 38.8975 218.503 39.0335 218.37 39.17L217.441 38.1494ZM221.821 41.4826C221.421 41.4826 221.09 41.4826 220.693 41.5509C220.294 41.6187 219.962 41.6865 219.631 41.8226C219.299 41.8908 219.033 42.0947 218.835 42.299C218.637 42.5029 218.569 42.775 218.569 43.1154C218.569 43.5913 218.702 43.9317 219.033 44.1356C219.365 44.3399 219.764 44.476 220.293 44.476C220.758 44.476 221.089 44.4077 221.421 44.2717C221.687 44.1356 221.953 43.9317 222.152 43.6596C222.285 43.4557 222.418 43.1836 222.551 42.9115C222.616 42.5711 222.616 42.299 222.616 42.0269V41.4826H221.821Z" fill="black"/>
    <path d="M226.399 37.1287H227.924V38.421H227.991C228.19 37.945 228.521 37.6051 228.986 37.3326C229.45 37.0609 230.048 36.9248 230.646 36.9248C231.042 36.9248 231.442 36.9926 231.773 37.0609C232.17 37.1969 232.502 37.4008 232.768 37.6729C233.034 37.9451 233.232 38.285 233.431 38.6936C233.564 39.1013 233.629 39.5778 233.629 40.122V45.564H232.105V40.5985C232.105 40.1903 232.037 39.8499 231.906 39.5778C231.838 39.3057 231.705 39.0335 231.507 38.8975C231.308 38.6936 231.11 38.6258 230.91 38.4897C230.711 38.4215 230.445 38.4215 230.246 38.4215C229.915 38.4215 229.583 38.4215 229.317 38.5575C229.053 38.6936 228.787 38.8297 228.589 39.0335C228.388 39.3057 228.19 39.5778 228.124 39.9181C227.991 40.3263 227.924 40.7341 227.924 41.2105V45.564H226.399V37.1287Z" fill="black"/>
    <path d="M241.188 32.9805H243.382L250.152 43.3194H250.222V32.9805H251.879V45.5641H249.755L242.915 35.2244H242.845V45.5641H241.188V32.9805Z" fill="black"/>
    <path d="M254.657 38.1494C255.054 37.7412 255.591 37.4012 256.174 37.1969C256.712 36.9926 257.318 36.9248 257.902 36.9248C258.509 36.9248 259.046 36.9926 259.443 37.1287C259.909 37.2647 260.236 37.4686 260.493 37.7412C260.773 38.0129 260.96 38.3532 261.1 38.6254C261.216 38.9653 261.287 39.3739 261.287 39.7138L261.287 44C261.287 44.3399 261.287 44.612 261.357 44.8163C261.357 45.088 261.357 45.2923 261.357 45.5645L260.027 45.564C259.956 45.088 259.956 44.6798 259.956 44.2717H259.91C259.559 44.8159 259.163 45.2241 258.696 45.4284C258.252 45.6323 257.645 45.7683 257.038 45.7683C256.642 45.7683 256.314 45.7005 255.918 45.564C255.591 45.4962 255.334 45.3602 255.054 45.088C254.797 44.8842 254.587 44.612 254.47 44.3399C254.26 44 254.19 43.6596 254.19 43.2514C254.19 42.7072 254.33 42.2308 254.517 41.8908C254.798 41.4826 255.124 41.2105 255.521 40.9384C255.918 40.7341 256.385 40.5984 256.992 40.4624C257.506 40.3941 258.112 40.3263 258.696 40.3263H259.839V39.9864C259.839 39.7821 259.839 39.51 259.769 39.3061C259.629 39.1022 259.559 38.8979 259.373 38.7619C259.233 38.558 259.046 38.4219 258.766 38.3537C258.509 38.2181 258.252 38.218 257.902 38.218C257.575 38.218 257.388 38.2181 257.108 38.2859C256.922 38.3537 256.712 38.4219 256.525 38.4897C256.315 38.558 256.175 38.694 255.988 38.8297C255.848 38.8979 255.731 39.034 255.591 39.17L254.657 38.1494ZM259.046 41.4826C258.649 41.4826 258.299 41.4826 257.902 41.5509C257.506 41.6187 257.178 41.6865 256.852 41.8226C256.525 41.8908 256.245 42.0947 256.058 42.299C255.848 42.5029 255.778 42.775 255.778 43.1154C255.778 43.5913 255.918 43.9317 256.245 44.1356C256.595 44.3399 256.992 44.476 257.505 44.476C257.972 44.476 258.299 44.4077 258.649 44.2717C258.906 44.1356 259.163 43.9317 259.373 43.6596C259.513 43.4557 259.629 43.1836 259.769 42.9115C259.839 42.5711 259.839 42.299 259.839 42.0269V41.4826H259.046Z" fill="black"/>
    <path d="M267.94 39.2374C267.8 38.9657 267.52 38.8297 267.263 38.6254C267.006 38.4893 266.679 38.421 266.259 38.421C265.932 38.421 265.605 38.4893 265.349 38.6254C265.069 38.8292 264.882 39.0335 264.882 39.3739C264.882 39.5778 264.998 39.7817 265.139 39.9177C265.279 40.122 265.465 40.1898 265.675 40.3259C265.933 40.3941 266.143 40.4619 266.399 40.5302C266.609 40.598 266.796 40.598 267.006 40.6658C267.333 40.7341 267.66 40.8701 267.94 40.9379C268.267 41.074 268.523 41.2101 268.734 41.4139C268.92 41.6178 269.13 41.8221 269.177 42.0942C269.317 42.3668 269.387 42.7067 269.387 43.1149C269.387 43.5909 269.317 43.9995 269.13 44.3395C268.92 44.6794 268.664 44.9515 268.337 45.1558C268.057 45.3602 267.66 45.4958 267.263 45.6318C266.866 45.7001 266.469 45.7679 266.072 45.7679C265.419 45.7679 264.812 45.6318 264.275 45.4279C263.738 45.2241 263.294 44.8159 262.897 44.2717L264.088 43.251C264.345 43.5231 264.602 43.727 264.952 43.9313C265.209 44.1352 265.605 44.2712 266.072 44.2712C266.259 44.2712 266.469 44.2712 266.679 44.203C266.866 44.1352 267.076 44.0669 267.193 43.9991C267.333 43.9313 267.473 43.7952 267.59 43.6592C267.66 43.5231 267.73 43.387 267.73 43.1827C267.73 42.9789 267.659 42.775 267.52 42.6389C267.403 42.4351 267.193 42.3668 267.006 42.2307C266.796 42.1629 266.609 42.0947 266.329 42.0269C266.142 41.9591 265.932 41.9591 265.745 41.8908C265.419 41.8226 265.069 41.7548 264.811 41.6187C264.485 41.4826 264.205 41.3466 264.018 41.2105C263.737 41.0066 263.621 40.8023 263.481 40.5302C263.294 40.2581 263.224 39.9181 263.224 39.51C263.224 39.0335 263.341 38.6936 263.481 38.3532C263.691 38.0133 263.948 37.7412 264.205 37.5369C264.555 37.3325 264.881 37.1969 265.208 37.0609C265.605 36.9926 266.002 36.9248 266.329 36.9248C266.936 36.9248 267.473 36.9926 267.94 37.1969C268.453 37.4686 268.85 37.809 269.177 38.285L267.94 39.2374Z" fill="black"/>
    <path d="M271.045 34.1356C271.045 33.7952 271.185 33.5231 271.372 33.2514C271.582 33.0471 271.838 32.9102 272.166 32.9102C272.516 32.9102 272.772 33.0471 272.959 33.2514C273.24 33.5231 273.309 33.7952 273.309 34.1356C273.309 34.4073 273.239 34.6794 272.959 34.952C272.772 35.1558 272.516 35.2919 272.166 35.2919C271.838 35.2919 271.582 35.1558 271.372 34.952C271.185 34.6798 271.045 34.4077 271.045 34.1356ZM271.372 37.1285H272.959V45.5638H271.372V37.1285Z" fill="black"/>
    <path d="M275.037 41.3466C275.037 40.7345 275.153 40.1225 275.364 39.5782C275.621 39.1022 275.901 38.6258 276.298 38.2176C276.695 37.8094 277.161 37.4695 277.675 37.2652C278.212 36.9931 278.819 36.9248 279.403 36.9248C280.009 36.9248 280.593 36.9931 281.13 37.2652C281.667 37.469 282.134 37.8094 282.53 38.2176C282.927 38.6258 283.184 39.1022 283.464 39.5782C283.651 40.1225 283.791 40.7345 283.791 41.3466C283.791 41.9591 283.651 42.5033 283.464 43.0471C283.184 43.5914 282.927 44.0678 282.53 44.476C282.134 44.8842 281.667 45.1563 281.13 45.4284C280.593 45.6323 280.009 45.7683 279.403 45.7683C278.819 45.7683 278.212 45.6323 277.675 45.4284C277.161 45.1563 276.695 44.8842 276.298 44.476C275.901 44.0678 275.621 43.5914 275.364 43.0471C275.154 42.5029 275.037 41.9591 275.037 41.3466ZM276.694 41.3466C276.694 41.7547 276.741 42.1629 276.881 42.5033C277.021 42.8432 277.208 43.1836 277.418 43.4557C277.675 43.6596 277.955 43.8639 278.282 44.0678C278.609 44.2039 279.005 44.2721 279.402 44.2721C279.799 44.2721 280.196 44.2039 280.523 44.0678C280.873 43.8639 281.13 43.66 281.387 43.4557C281.596 43.1836 281.783 42.8437 281.924 42.5033C282.063 42.1629 282.134 41.7552 282.134 41.3466C282.134 40.9388 282.063 40.5302 281.924 40.1225C281.784 39.7821 281.596 39.51 281.387 39.2374C281.13 38.9657 280.873 38.7614 280.523 38.6254C280.196 38.4893 279.799 38.421 279.402 38.421C279.005 38.421 278.609 38.4893 278.282 38.6254C277.955 38.7614 277.675 38.9657 277.418 39.2374C277.208 39.51 277.021 39.7821 276.881 40.1225C276.741 40.5302 276.694 40.9384 276.694 41.3466Z" fill="black"/>
    <path d="M285.705 37.1287H287.292V38.421C287.503 37.945 287.829 37.6051 288.366 37.3326C288.833 37.0609 289.347 36.9248 290.024 36.9248C290.421 36.9248 290.817 36.9926 291.144 37.0609C291.541 37.1969 291.821 37.4008 292.148 37.6729C292.405 37.9451 292.615 38.285 292.732 38.6936C292.942 39.1013 293.012 39.5778 293.012 40.122V45.564H291.425V40.5985C291.425 40.1903 291.425 39.8499 291.285 39.5778C291.214 39.3057 291.004 39.0335 290.888 38.8975C290.677 38.6936 290.491 38.6258 290.281 38.4897C290.024 38.4215 289.814 38.4215 289.557 38.4215C289.23 38.4215 288.95 38.4215 288.693 38.5575C288.437 38.6936 288.156 38.8297 287.969 39.0335C287.759 39.3057 287.573 39.5778 287.433 39.9181C287.363 40.3263 287.293 40.7345 287.293 41.2105L287.292 45.564H285.705V37.1287Z" fill="black"/>
    <path d="M295.393 38.1494C295.859 37.7412 296.326 37.4012 296.91 37.1969C297.516 36.9926 298.054 36.9248 298.637 36.9248C299.244 36.9248 299.781 36.9926 300.178 37.1287C300.645 37.2647 300.972 37.4686 301.298 37.7412C301.555 38.0129 301.765 38.3532 301.905 38.6254C302.022 38.9653 302.092 39.3739 302.092 39.7138L302.092 44C302.092 44.3399 302.092 44.612 302.092 44.8163C302.092 45.088 302.092 45.2923 302.163 45.5645L300.762 45.564C300.692 45.088 300.692 44.6798 300.692 44.2717C300.295 44.8159 299.898 45.2241 299.431 45.4284C298.988 45.6323 298.451 45.7683 297.774 45.7683C297.447 45.7683 297.05 45.7005 296.723 45.564C296.397 45.4962 296.047 45.3602 295.79 45.088C295.533 44.8842 295.323 44.612 295.206 44.3399C295.066 44 294.926 43.6596 294.926 43.2514C294.926 42.7072 295.066 42.2308 295.323 41.8908C295.533 41.4826 295.86 41.2105 296.257 40.9384C296.723 40.7341 297.19 40.5984 297.727 40.4624C298.241 40.3941 298.848 40.3263 299.501 40.3263H300.645V39.9864C300.645 39.7821 300.575 39.51 300.505 39.3061C300.435 39.1022 300.295 38.8979 300.178 38.7619C299.968 38.558 299.781 38.4219 299.501 38.3537C299.314 38.2181 298.988 38.218 298.638 38.218C298.38 38.218 298.124 38.2181 297.844 38.2859C297.657 38.3537 297.447 38.4219 297.26 38.4897C297.05 38.558 296.91 38.694 296.793 38.8297C296.583 38.8979 296.466 39.034 296.326 39.17L295.393 38.1494ZM299.781 41.4826C299.431 41.4826 299.034 41.4826 298.638 41.5509C298.241 41.6187 297.914 41.6865 297.587 41.8226C297.26 41.8908 297.05 42.0947 296.863 42.299C296.583 42.5029 296.513 42.775 296.513 43.1154C296.513 43.5913 296.653 43.9317 296.98 44.1356C297.307 44.3399 297.727 44.476 298.311 44.476C298.708 44.476 299.104 44.4077 299.384 44.2717C299.712 44.1356 299.898 43.9317 300.108 43.6596C300.295 43.4557 300.435 43.1836 300.505 42.9115C300.575 42.5711 300.645 42.299 300.645 42.0269V41.4826H299.781Z" fill="black"/>
    <path d="M304.474 45.5639H306V32.0947H304.474V45.5639Z" fill="black"/>
    </g>
    <defs>
    <filter id="filter0_d_695_1996" x="0" y="0" width="314" height="66" filterUnits="userSpaceOnUse" color-interpolation-filters="sRGB">
    <feFlood flood-opacity="0" result="BackgroundImageFix"/>
    <feColorMatrix in="SourceAlpha" type="matrix" values="0 0 0 0 0 0 0 0 0 0 0 0 0 0 0 0 0 0 127 0" result="hardAlpha"/>
    <feOffset dy="4"/>
    <feGaussianBlur stdDeviation="4"/>
    <feComposite in2="hardAlpha" operator="out"/>
    <feColorMatrix type="matrix" values="0 0 0 0 0 0 0 0 0 0 0 0 0 0 0 0 0 0 0.1 0"/>
    <feBlend mode="normal" in2="BackgroundImageFix" result="effect1_dropShadow_695_1996"/>
    <feBlend mode="normal" in="SourceGraphic" in2="effect1_dropShadow_695_1996" result="shape"/>
    </filter>
    <clipPath id="clip0_695_1996">
    <rect width="298" height="50" fill="white" transform="translate(8 4)"/>
    </clipPath>
    </defs>
    </svg>
    