<svg width="50" height="42" viewBox="0 0 50 42" fill="none" xmlns="http://www.w3.org/2000/svg">
    <path fill-rule="evenodd" clip-rule="evenodd" d="M5.86073 7.90946H44.6037C47.1807 7.90946 49.2898 9.84383 49.2898 12.2075V37.0733C49.2898 39.437 47.1807 41.3713 44.6037 41.3713H4.73398C2.1569 41.3713 0.0478516 39.437 0.0478516 37.0733V6.35667C0.0478516 5.23845 1.05326 4.4647 2.26091 4.32691L37.9876 0.145508C39.2068 0.145508 40.2007 1.05704 40.2007 2.17527V5.65182H3.62457C3.62457 7.10922 4.09838 7.90946 5.85496 7.90946H5.86073ZM27.5868 35.1549C24.3279 35.7272 20.1387 34.7309 17.8621 32.4838C16.8336 31.4716 18.4919 29.94 19.5262 30.9628C21.0574 32.4785 23.7905 33.1834 26.0209 33.1357C28.8638 33.0774 31.3889 30.7085 29.7768 28.0586C27.5406 24.3913 22.0397 25.4194 19.2084 22.5364C16.9202 20.2099 18.0065 16.5532 20.6934 14.9368C23.4958 13.2462 28.3322 13.3098 30.6377 15.737C31.6316 16.7757 29.9674 18.3073 28.9736 17.258C27.113 15.3024 22.7158 15.5674 21.0343 17.5813C18.6479 20.459 22.2189 22.0065 24.715 22.7007C28.1473 23.6547 31.9551 25.3982 32.5792 29.0073C33.0761 31.9115 30.6262 34.6196 27.5868 35.1549Z" fill="#EE4E2C"/>
    </svg>
    